<svg xmlns="http://www.w3.org/2000/svg" width="829" height="773" viewBox="0 0 829 773">
  <g id="Group_1" data-name="Group 1" transform="translate(-738 -124)">
    <g id="Ellipse_1" data-name="Ellipse 1" transform="translate(738 196)" fill="#fd0000" stroke="#707070" stroke-width="1">
      <ellipse cx="372.5" cy="350.5" rx="372.5" ry="350.5" stroke="none"/>
      <ellipse cx="372.5" cy="350.5" rx="372" ry="350" fill="none"/>
    </g>
    <g id="Ellipse_2" data-name="Ellipse 2" transform="translate(756 214)" fill="#fff" stroke="#707070" stroke-width="1">
      <ellipse cx="353.5" cy="333.5" rx="353.5" ry="333.5" stroke="none"/>
      <ellipse cx="353.5" cy="333.5" rx="353" ry="333" fill="none"/>
    </g>
    <g id="Ellipse_3" data-name="Ellipse 3" transform="translate(778 234)" fill="#220505" stroke="#707070" stroke-width="1">
      <ellipse cx="334" cy="317" rx="334" ry="317" stroke="none"/>
      <ellipse cx="334" cy="317" rx="333.5" ry="316.5" fill="none"/>
    </g>
    <text id="Bite" transform="translate(943 612)" fill="#fff" font-size="211" font-family="HoeflerText-Regular, Hoefler Text"><tspan x="0" y="0">Bite</tspan></text>
    <text id="Healthy_Food_with_a_Latin_Flair" data-name="Healthy Food with a Latin Flair" transform="translate(825 681)" fill="#fff" font-size="43" font-family="HoeflerText-Regular, Hoefler Text"><tspan x="0" y="0">Healthy Food with a </tspan><tspan y="0" fill="red">Latin</tspan><tspan y="0" xml:space="preserve"> Flair</tspan></text>
    <g id="Union_1" data-name="Union 1" transform="translate(1131 124)" fill="#fff">
      <path d="M 332.4995727539062 399.4996337890625 C 321.6031799316406 399.4996337890625 310.8741455078125 397.8643493652344 300.6104125976562 394.6392517089844 C 290.6823120117188 391.5196228027344 281.3207397460938 386.958251953125 272.78564453125 381.0818481445312 C 264.3585205078125 375.2797546386719 256.8982543945312 368.3088989257812 250.6120300292969 360.3629150390625 C 244.2623596191406 352.3367004394531 239.2375793457031 343.4735717773438 235.6773071289062 334.0196838378906 L 235.474853515625 333.4822387695312 L 234.9704132080078 333.7566833496094 C 227.4267425537109 337.8611450195312 219.3685760498047 341.0287475585938 211.0197448730469 343.171630859375 C 202.4138031005859 345.3804626464844 193.4912414550781 346.5004272460938 184.5000305175781 346.5004272460938 C 177.5101318359375 346.5004272460938 170.5247955322266 345.820068359375 163.7380828857422 344.4782409667969 C 157.1242523193359 343.1705932617188 150.6186981201172 341.2194213867188 144.4021911621094 338.678955078125 C 138.2986907958984 336.1846923828125 132.4119110107422 333.0974731445312 126.9053573608398 329.5030212402344 C 121.4513549804688 325.9429016113281 116.3226318359375 321.8544006347656 111.6618041992188 317.3511352539062 C 107.0012435913086 312.84814453125 102.7700805664062 307.893310546875 99.08591461181641 302.6242980957031 C 95.36669158935547 297.3052368164062 92.17230224609375 291.6190795898438 89.59157562255859 285.7237548828125 C 86.96330261230469 279.7198486328125 84.94468688964844 273.4369201660156 83.59191131591797 267.0495300292969 C 82.203857421875 260.4954833984375 81.50002288818359 253.7496948242188 81.50002288818359 246.9995727539062 C 81.50002288818359 238.3968505859375 82.63802337646484 229.8561859130859 84.88246917724609 221.6148071289062 C 87.06018829345703 213.6182403564453 90.28047180175781 205.8932952880859 94.453857421875 198.6545867919922 L 94.81724548339844 198.0243072509766 L 94.09857940673828 197.9109649658203 C 80.99402618408203 195.8445739746094 68.51280212402344 191.8153533935547 57.00168991088867 185.9351959228516 C 45.73907852172852 180.1819610595703 35.75279998779297 172.8405303955078 27.32035636901855 164.1148529052734 C 18.83024597167969 155.3295288085938 12.20613479614258 145.4390258789062 7.632079601287842 134.718017578125 C 2.899579524993896 123.6258010864258 0.5000238418579102 111.9449157714844 0.5000238418579102 99.99991607666016 C 0.5000238418579102 93.25341033935547 1.27824604511261 86.51113128662109 2.813079357147217 79.96047210693359 C 4.309023857116699 73.57574462890625 6.541301727294922 67.29518890380859 9.447968482971191 61.29335784912109 C 12.30252361297607 55.39902496337891 15.83602428436279 49.71358108520508 19.95024681091309 44.39491271972656 C 24.02646827697754 39.12535858154297 28.70808029174805 34.1697998046875 33.86507797241211 29.66585731506348 C 39.02324676513672 25.16091346740723 44.69941329956055 21.07074546813965 50.73591232299805 17.50902366638184 C 56.83135604858398 13.91252422332764 63.34785842895508 10.82341289520264 70.10452270507812 8.327524185180664 C 76.98691558837891 5.785134792327881 84.18941497802734 3.832523822784424 91.51202392578125 2.523857116699219 C 99.02629852294922 1.180968284606934 106.7605209350586 0.5000238418579102 114.4998016357422 0.5000238418579102 C 122.2390823364258 0.5000238418579102 129.9732971191406 1.180968284606934 137.4875793457031 2.523857116699219 C 144.8101959228516 3.832523822784424 152.0126953125 5.785134792327881 158.8951416015625 8.327524185180664 C 165.6517486572266 10.82341289520264 172.1683044433594 13.91252422332764 178.2637481689453 17.50902366638184 C 184.3001861572266 21.07074546813965 189.9763641357422 25.16091346740723 195.1345825195312 29.66585731506348 C 200.2915191650391 34.1697998046875 204.9731292724609 39.12535858154297 209.0494079589844 44.39491271972656 C 213.16357421875 49.71358108520508 216.6970825195312 55.39902496337891 219.5516357421875 61.29335784912109 C 222.4582977294922 67.29518890380859 224.6905822753906 73.57574462890625 226.1865234375 79.96047210693359 C 227.7213592529297 86.51113128662109 228.4995727539062 93.25335693359375 228.4995727539062 99.99991607666016 C 228.4995727539062 109.051025390625 227.1073608398438 118.0201873779297 224.3616333007812 126.6583023071289 C 221.6991882324219 135.0344696044922 217.771240234375 143.0849609375 212.6868591308594 150.5861358642578 L 212.2961883544922 151.1625213623047 L 212.9671936035156 151.3485260009766 C 220.796630859375 153.5191955566406 228.3625793457031 156.6011352539062 235.4548034667969 160.5088043212891 C 242.4354095458984 164.3549652099609 248.9583587646484 169.0007476806641 254.8424682617188 174.317138671875 C 260.7142028808594 179.6222991943359 265.9421997070312 185.5881958007812 270.3811340332031 192.0491333007812 C 274.8732604980469 198.5873565673828 278.5545349121094 205.629638671875 281.3226928710938 212.9803009033203 L 281.525146484375 213.5177459716797 L 282.0295715332031 213.2433013916016 C 289.5731811523438 209.138916015625 297.6312866210938 205.9713592529297 305.9801330566406 203.8285217285156 C 314.5860900878906 201.6197509765625 323.5084533691406 200.4998016357422 332.4995727539062 200.4998016357422 C 339.4894714355469 200.4998016357422 346.4747924804688 201.1801300048828 353.2615356445312 202.52197265625 C 359.8753662109375 203.8295745849609 366.3809204101562 205.7806854248047 372.597412109375 208.3211364746094 C 378.700927734375 210.8153533935547 384.5876770019531 213.9025268554688 390.09423828125 217.4969177246094 C 395.5483093261719 221.0569610595703 400.6769714355469 225.1454162597656 405.3378601074219 229.6486358642578 C 409.9984130859375 234.1515808105469 414.2295227050781 239.1063537597656 417.9137573242188 244.3753051757812 C 421.6329650878906 249.6943054199219 424.8273010253906 255.3804168701172 427.4080810546875 261.2756958007812 C 430.0363464355469 267.2795715332031 432.0549621582031 273.5624084472656 433.4077453613281 279.9497985839844 C 434.7958068847656 286.5038146972656 435.4996337890625 293.2495727539062 435.4996337890625 299.9996948242188 C 435.4996337890625 306.7498168945312 434.7958068847656 313.4955749511719 433.4077453613281 320.0495910644531 C 432.0549621582031 326.4369812011719 430.0363464355469 332.7197875976562 427.4080810546875 338.7236938476562 C 424.8273010253906 344.6189575195312 421.6329650878906 350.3050842285156 417.9137573242188 355.6241455078125 C 414.2295227050781 360.8930358886719 409.9984130859375 365.8478088378906 405.3378601074219 370.3507385253906 C 400.6769714355469 374.8540344238281 395.5483093261719 378.9424743652344 390.09423828125 382.5025329589844 C 384.5876770019531 386.0968627929688 378.700927734375 389.18408203125 372.597412109375 391.6783142089844 C 366.3809204101562 394.21875 359.8753662109375 396.1698608398438 353.2615356445312 397.4774780273438 C 346.4747924804688 398.8193054199219 339.4894714355469 399.4996337890625 332.4995727539062 399.4996337890625 Z" stroke="none"/>
      <path d="M 332.4995727539062 398.9996337890625 C 339.4569702148438 398.9996337890625 346.4096984863281 398.3224792480469 353.1645812988281 396.9869689941406 C 359.7469177246094 395.6855773925781 366.2214660644531 393.7437438964844 372.4082336425781 391.2154541015625 C 378.4824829101562 388.7331848144531 384.3409118652344 385.6608581542969 389.8209533691406 382.0838623046875 C 395.24853515625 378.541015625 400.352294921875 374.4724731445312 404.9904174804688 369.9911804199219 C 409.6279602050781 365.5104675292969 413.838134765625 360.5802917480469 417.5039672851562 355.3375854492188 C 421.204345703125 350.0455322265625 424.3824768066406 344.3883666992188 426.9500122070312 338.523193359375 C 429.5647583007812 332.5504150390625 431.5728454589844 326.3001403808594 432.9185791015625 319.9459533691406 C 434.2994689941406 313.4259643554688 434.9996337890625 306.715087890625 434.9996337890625 299.9996948242188 C 434.9996337890625 293.2843017578125 434.2994689941406 286.5734252929688 432.9185791015625 280.0534057617188 C 431.5728454589844 273.6992492675781 429.5647583007812 267.448974609375 426.9500122070312 261.4761962890625 C 424.3824768066406 255.6110229492188 421.204345703125 249.953857421875 417.5039672851562 244.6618041992188 C 413.838134765625 239.4190826416016 409.6279602050781 234.4889068603516 404.9904174804688 230.0082397460938 C 400.352294921875 225.5269165039062 395.24853515625 221.4583587646484 389.8209533691406 217.9155731201172 C 384.3409118652344 214.3385772705078 378.4824829101562 211.2662506103516 372.4082336425781 208.7839660644531 C 366.2214660644531 206.2556304931641 359.7469177246094 204.3138580322266 353.1645812988281 203.0124664306641 C 346.4096984863281 201.6769714355469 339.4569702148438 200.9998016357422 332.4995727539062 200.9998016357422 C 323.5503540039062 200.9998016357422 314.6697998046875 202.1144714355469 306.1044616699219 204.3128509521484 C 297.7955322265625 206.4454193115234 289.7759704589844 209.5978088378906 282.2685852050781 213.6824645996094 L 281.2595825195312 214.2314147949219 L 280.8547973632812 213.1565246582031 C 269.6730346679688 183.4644622802734 244.2445220947266 160.5388031005859 212.8335723876953 151.8303527832031 L 211.4916839599609 151.4582977294922 L 212.2729644775391 150.3056335449219 C 217.3303527832031 142.8442535400391 221.2372436523438 134.8371887207031 223.8851318359375 126.5068588256836 C 226.6152954101562 117.9178009033203 227.9995727539062 108.9995803833008 227.9995727539062 99.99991607666016 C 227.9995727539062 93.291748046875 227.2257995605469 86.58786010742188 225.6997528076172 80.07452392578125 C 224.2121887207031 73.72557830810547 221.9922485351562 67.48002624511719 219.1016387939453 61.51130294799805 C 216.2621307373047 55.64802551269531 212.7469635009766 49.99219131469727 208.6539154052734 44.70085906982422 C 204.5974731445312 39.45685577392578 199.9382476806641 34.52507781982422 194.8056335449219 30.0424690246582 C 189.6706390380859 25.55774688720703 184.0196380615234 21.48574638366699 178.0096282958984 17.93968963623047 C 171.9398498535156 14.35830116271973 165.4505310058594 11.28213500976562 158.7218627929688 8.796524047851562 C 151.8670806884766 6.264357089996338 144.6932525634766 4.319523811340332 137.3996276855469 3.016079425811768 C 129.914306640625 1.678301692008972 122.2096939086914 1.00002384185791 114.4998016357422 1.00002384185791 C 106.7899703979492 1.00002384185791 99.08530426025391 1.678301692008972 91.59996795654297 3.016079425811768 C 84.30635833740234 4.319523811340332 77.13257598876953 6.264357089996338 70.27774810791016 8.796524047851562 C 63.54907989501953 11.28213500976562 57.05974578857422 14.35830116271973 50.98996734619141 17.93968963623047 C 44.9799690246582 21.48574638366699 39.3289680480957 25.55774688720703 34.1939697265625 30.0424690246582 C 29.06135749816895 34.52507781982422 24.40213584899902 39.45685577392578 20.34568977355957 44.70085906982422 C 16.25263404846191 49.99219131469727 12.73752403259277 55.64802551269531 9.897968292236328 61.51130294799805 C 7.007357120513916 67.48002624511719 4.787412643432617 73.72557830810547 3.299857139587402 80.07452392578125 C 1.773801684379578 86.58786010742188 1.00002384185791 93.291748046875 1.00002384185791 99.99991607666016 C 1.00002384185791 111.8771362304688 3.38607931137085 123.4919662475586 8.091968536376953 134.5218048095703 C 12.64202404022217 145.1864624023438 19.23235702514648 155.0261383056641 27.67991256713867 163.7674102783203 C 36.07396697998047 172.4533081054688 46.0157470703125 179.7617950439453 57.22913360595703 185.4899139404297 C 68.69324493408203 191.3460235595703 81.12407684326172 195.3589172363281 94.17646789550781 197.4170837402344 L 95.61380004882812 197.6436920166016 L 94.88702392578125 198.904296875 C 90.73507690429688 206.1058502197266 87.53135681152344 213.7909698486328 85.36486053466797 221.7461853027344 C 83.13213348388672 229.9447479248047 82.00002288818359 238.4412536621094 82.00002288818359 246.9995727539062 C 82.00002288818359 253.7149658203125 82.70018768310547 260.4259033203125 84.08107757568359 266.9459228515625 C 85.42680358886719 273.3001403808594 87.43491363525391 279.5504150390625 90.04957580566406 285.5232543945312 C 92.6171875 291.3884582519531 95.79530334472656 297.0456848144531 99.49568939208984 302.3377990722656 C 103.1615219116211 307.5805358886719 107.3716888427734 312.5108032226562 112.0092468261719 316.9915161132812 C 116.6473541259766 321.472900390625 121.7510757446289 325.5415344238281 127.1786880493164 329.0843505859375 C 132.65869140625 332.6614074707031 138.5171966552734 335.7337951660156 144.5913543701172 338.2161254882812 C 150.7781372070312 340.7444763183594 157.252685546875 342.6863098144531 163.8350219726562 343.9877319335938 C 170.5899200439453 345.3232421875 177.5426330566406 346.0004272460938 184.5000305175781 346.0004272460938 C 193.4493560791016 346.0004272460938 202.330078125 344.8857421875 210.8954162597656 342.6873168945312 C 219.2044067382812 340.5546875 227.2239685058594 337.4022521972656 234.7314147949219 333.3175354003906 L 235.7403564453125 332.7685852050781 L 236.1451873779297 333.8434753417969 C 239.6872406005859 343.2489624023438 244.6865234375 352.0670166015625 251.0041351318359 360.0527038574219 C 257.2593994140625 367.9595642089844 264.6831970214844 374.896240234375 273.0691833496094 380.6700134277344 C 281.5632019042969 386.5181274414062 290.8797912597656 391.0575866699219 300.7603149414062 394.1622314453125 C 310.9754638671875 397.3720703125 321.6541442871094 398.9996337890625 332.4995727539062 398.9996337890625 M 332.4995727539062 399.9996337890625 C 287.7694702148438 399.9996337890625 249.6665191650391 372.5849609375 235.2093505859375 334.1959228515625 C 220.2229156494141 342.3499145507812 202.9247436523438 347.0004272460938 184.5000305175781 347.0004272460938 C 127.3383026123047 347.0004272460938 81.00002288818359 302.2281494140625 81.00002288818359 246.9995727539062 C 81.00002288818359 229.3631286621094 85.72647094726562 212.7911376953125 94.02069091796875 198.4048614501953 C 40.55524444580078 189.9741973876953 2.385796506132465e-05 149.1237487792969 2.385796506132465e-05 99.99991607666016 C 2.385796506132465e-05 44.77141189575195 51.26313400268555 2.385796506132465e-05 114.4998016357422 2.385796506132465e-05 C 177.7365264892578 2.385796506132465e-05 228.9995727539062 44.77141189575195 228.9995727539062 99.99991607666016 C 228.9995727539062 118.5734710693359 223.2020721435547 135.9637451171875 213.1007385253906 150.8666839599609 C 244.9694671630859 159.7020721435547 270.54052734375 182.9306335449219 281.7906494140625 212.8040771484375 C 296.7770385742188 204.6501922607422 314.0751953125 199.9998016357422 332.4995727539062 199.9998016357422 C 389.6613159179688 199.9998016357422 435.9996337890625 244.7711944580078 435.9996337890625 299.9996948242188 C 435.9996337890625 355.2281799316406 389.6613159179688 399.9996337890625 332.4995727539062 399.9996337890625 Z" stroke="none" fill="#fff"/>
    </g>
  </g>
</svg>
